<svg height="512" viewBox="0 0 512 512" width="512" xmlns="http://www.w3.org/2000/svg"><g isolation="isolate"><g id="Layer_1" data-name="Layer 1"><path d="m459.8 241.81c-33 35.12-86.94 58.8-143.2 52.63.25-7.19.49-14.33.64-21.49q.13-6 .15-12.1c44.56.42 88.19-19.44 115.87-47.68 2.3-2.35 7.68-2.59 12.86-.6a20.12 20.12 0 0 1 8.57 6.1c.07.09.42.42.5.5 6.49 6.61 8.27 18.74 4.61 22.64z" fill="#bac2cc"/><path d="m446.12 212.57a29.68 29.68 0 0 1 -4.65 6.81c-27.66 31.94-78 54-124.23 53.57q.13-6 .15-12.1c44.56.42 88.19-19.44 115.87-47.68 2.3-2.35 7.68-2.59 12.86-.6z" fill="#c5ccd3"/><path d="m312.8 98.38s27.8-67.53 88.47-50.31c0 0 18.45 66.66-26.41 97.69-15.86 10.99-62.06-47.38-62.06-47.38z" fill="#bac3ce"/><path d="m387.26 64.64s-24.38 2.79-34.39 34.05c-5.66 17.71-12.09 24.52-12.09 24.52s32.5 7.55 31.37 0-11-7.94-5.29-13.23 21.83-24.35 11.33-26.07c-14.19-2.32 9.07-19.27 9.07-19.27z" fill="#8792ae" opacity=".47" mix-blend-mode="multiply"/><path d="m212.88 98.38s-27.79-67.53-88.46-50.31c0 0-18.45 66.66 26.41 97.69 15.89 10.99 62.05-47.38 62.05-47.38z" fill="#adb4be"/><path d="m138.87 65.3s24.38 2.79 34.39 34.05c5.66 17.72 12.09 24.52 12.09 24.52s-32.5 7.56-31.37 0 11-7.94 5.29-13.23-21.83-24.35-11.33-26.07c14.17-2.32-9.07-19.27-9.07-19.27z" fill="#8792ae" opacity=".47" mix-blend-mode="multiply"/><path d="m253.53 79.62s-3.2-19.65-31-10.1c0 0 11.73 1.9 12.7 11.6z" fill="#bac3ce"/><path d="m222.52 69.52s19.32-2.09 17.87 20.84l-4.46-1.46s1.88-14.23-13.41-19.38z" fill="#acb6c1"/><path d="m252.37 79.89s-3-30.4-32.06-38.63c0 0 50.38 3.4 61.72 40.91z" fill="#bac3ce"/><path d="m220.31 41.26s38.94 8.66 30.94 32.94c0 0-6.34-22.09-30.94-32.94z" fill="#acb6c1"/><path d="m279.48 83.12s.7-26.52-14.47-35c0 0 27.89 10.86 41.73 38.11z" fill="#bac3ce"/><path d="m265 48.12s21.38 9.81 13.91 26.31c.01 0-2.23-17.09-13.91-26.31z" fill="#acb6c1"/><ellipse cx="261.44" cy="439.68" opacity=".1" rx="137.66" ry="31.06"/><path d="m259.73 324.66a66.37 66.37 0 0 1 3.6 27.22c-15.39 19.45-38.56 36.54-70.39 29.22 20.78-30.07 23.42-49 22.77-58.48a58.62 58.62 0 0 0 44.02 2.04z" fill="#606b7d"/><path d="m336.36 425.61s23.14-7.16 44.52 4.5 5 11.64 5 11.64 6.25 7.59-8.91 5.62c0 0 2 4.76-11.3.65s-21.67-5.57-40.67-4.61-8.9-16.48-8.9-16.48z" fill="#606b7d"/><path d="m201 443.41c-19-1-27.45.49-40.76 4.6s-11.3-.65-11.3-.65c-.3 0-.59.08-.88.1-14 1.58-8-5.71-8-5.71s-16.35 0 5-11.63 44.51-4.52 44.51-4.52l16.81 1.1 3.51.23s10.11 17.44-8.89 16.48z" fill="#606b7d"/><path d="m201 443.41c-19-1-27.45.49-40.76 4.6s-11.3-.65-11.3-.65c2 1.54 11.63-.91 21-5.34s23.85.46 34.39-2.14c7.28-1.79 4.52-8.92 2.11-13.18l3.51.23s10.05 17.44-8.95 16.48z" fill="#4f5b6d"/><path d="m324.84 443.41c19-1 27.45.49 40.75 4.6s11.3-.65 11.3-.65c-2 1.54-11.62-.91-20.95-5.34s-23.85.46-34.39-2.14c-7.27-1.79-4.51-8.92-2.11-13.18l-3.51.23s-10.15 17.44 8.91 16.48z" fill="#4f5b6d"/><path d="m354.56 395.41a121.77 121.77 0 0 1 -15.22 26.41c-1.81 2.42-3 3.79-3 3.79a24 24 0 0 1 -20.34 1.32 55.19 55.19 0 0 1 -6.47-2.73c-1.75-.86-3.77-1.93-5.95-3.25-10.28-6.16-24-17.59-29.41-36.53-4.23-14.84.38-30.78 10.22-43.29 11.31-14.37 29.53-24.19 49.18-22.56a42.77 42.77 0 0 1 3.39 2.78c.37.31.75.66 1.15 1 9.99 9.31 31.69 35.09 16.45 73.06z" fill="#bac2cc"/><path d="m251.7 384.42c-5.3 18.61-18.67 30-28.88 36.21a78.43 78.43 0 0 1 -7.26 3.93 55.25 55.25 0 0 1 -5.71 2.37c-6.07 2.95-14.58 2.78-20.31-1.32 0 0-2.64-3.1-6.13-8.17a116.28 116.28 0 0 1 -12.08-22c-13.78-34.34 2.65-58.71 13.29-69.92a67.4 67.4 0 0 1 5.24-5c1.5-1.27 2.42-1.93 2.42-1.93 20.22-1.68 38.91 8.76 50.13 23.8 9.19 12.3 13.38 27.68 9.29 42.03z" fill="#adb4be"/><path d="m336.69 322.67a110.17 110.17 0 0 0 2.9-19.92c.09-1.95.15-3.92.15-5.9 0-22.92-6.95-43.89-18.42-60a91.43 91.43 0 0 0 -6.17-7.69c-12-13.32-27.47-22.07-44.63-23.94a59.86 59.86 0 0 0 -7-.4c-19.67 0-37.61 9-51.13 23.77q-2.82 3.09-5.38 6.5c-12.25 16.33-19.71 38-19.71 61.77 0 1.47 0 2.95.08 4.4a109.61 109.61 0 0 0 3 21.42 69.5 69.5 0 0 0 -8.43 33.13c0 28.72 17.66 53.66 43.56 66.19a84.55 84.55 0 0 0 10.82 4.35 0 0 0 0 0 0 0 86.94 86.94 0 0 0 15.78 3.53 89.62 89.62 0 0 0 11.41.73 88.07 88.07 0 0 0 27-4.2 84.1 84.1 0 0 0 10-3.93c26.46-12.35 44.6-37.57 44.6-66.68a69.49 69.49 0 0 0 -8.43-33.13z" fill="#adb4be"/><path d="m263.52 430.61a88.07 88.07 0 0 0 27-4.2 84.1 84.1 0 0 0 10-3.93c26.46-12.35 44.6-37.57 44.6-66.68a69.49 69.49 0 0 0 -8.42-33.13 110.17 110.17 0 0 0 2.9-19.92c.09-1.95.15-3.92.15-5.9 0-22.92-6.95-43.89-18.42-60a91.43 91.43 0 0 0 -6.17-7.69c-12-13.32-27.47-22.07-44.63-23.94z" fill="#bac2cc"/><path d="m329.42 376.38-5.78-6s2.61 17.51-.75 24.21l-4.09-5.76s.37 13-4.29 19.73l-2.41-13s0 15.46-5 20.11l-2.1-11.54a54.35 54.35 0 0 1 -4.5 18.35 84.1 84.1 0 0 1 -10 3.93 88.07 88.07 0 0 1 -27 4.2 89.62 89.62 0 0 1 -11.41-.73 1.43 1.43 0 0 1 -.29 0c-.58-.07-1.16-.16-1.74-.25l-2-.32c-.64-.11-1.28-.24-1.9-.36h-.11c-.65-.14-1.33-.27-2-.43s-1.28-.29-1.9-.44c-.45-.1-.9-.23-1.33-.34s-.86-.23-1.3-.36c-1.08-.3-2.16-.62-3.22-1a0 0 0 0 1 0 0 84.55 84.55 0 0 1 -10.8-4.38 59.48 59.48 0 0 1 -3.5-17.87l-2 11.55c-5-4.65-5-20.11-5-20.11l-2.42 13c-4.67-6.7-4.29-19.73-4.29-19.73l-4.1 5.76c-3.35-6.7-.75-24.21-.75-24.21l-5.76 6c-.38-5.4 5-22.35 5-22.35l-5 4.84c-.19-5.68 9.91-21.31 10.22-21.79l-6.5 3.35c1.87-4.84 14.9-17.88 14.9-17.88h-5.64c3.68-6.33 17.56-18.08 17.56-18.08h-6c.78-2.85 7.23-7.46 12.17-10.64 3.19-2.05 5.75-3.51 5.75-3.51l-5-1c1-9.44 14.51-17.89 14.51-17.89l-10.39 2.31c-.18-3.73 6.09-12.32 6.47-12.85l-6.87 5.76c-.93-6 4.66-14.9 4.66-14.9l-6.51 3.9c0-4.3 7.17-11.77 7.17-11.77h-5.45c1.15-5.17 16.37-15.51 16.37-15.51l-8.33 1.72 14-9.56.09-.06h5.47.08l1.92 1.32 12.08 8.25-8.41-1.66s15.23 10.34 16.37 15.51h-5.45s7.18 7.47 7.18 11.77l-6.51-3.9s5.59 8.93 4.66 14.9l-6.9-5.78s7 10.19 6.78 14l-8.09-3.05s11 7.77 11.93 17.46l-5 1s4.43 2.51 8.87 5.6h.05c4.17 2.9 8.37 6.26 9 8.53h-6s13.87 11.75 17.54 18.08h-5.63s13 13 14.9 17.88l-6.51-3.35c.32.48 10.42 16.11 10.24 21.79l-5-4.84s5.36 17.01 4.99 22.39z" fill="#f1f2f0"/><path d="m268.26 221.86c-8.26 11.5-16 30.72-9.68 59.26 0 .07 0 .14.05.2a53.42 53.42 0 0 1 -5.24 37.74c-1.47 2.62-2.95 5.55-4.38 8.75-9.85 22.06-17 57.34 3.1 102.06h-.29c-.58-.07-1.16-.16-1.74-.25l-2-.32c-.64-.11-1.28-.24-1.9-.36h-.11c-.65-.14-1.33-.27-2-.43s-1.28-.29-1.9-.44c-.45-.1-.9-.23-1.33-.34s-.86-.23-1.3-.36c-1.08-.3-2.16-.62-3.22-1a0 0 0 0 1 0 0 84.55 84.55 0 0 1 -10.82-4.37 59.48 59.48 0 0 1 -3.5-17.87l-2 11.55c-5-4.65-5-20.11-5-20.11l-2.42 13c-4.67-6.7-4.29-19.73-4.29-19.73l-4.1 5.76c-3.35-6.7-.75-24.21-.75-24.21l-5.76 6c-.38-5.4 5-22.35 5-22.35l-5 4.84c-.19-5.68 9.91-21.31 10.22-21.79l-6.5 3.35c1.87-4.84 14.9-17.88 14.9-17.88h-5.64c3.68-6.33 17.56-18.08 17.56-18.08h-6c.78-2.85 7.23-7.46 12.17-10.64 3.19-2.05 5.75-3.51 5.75-3.51l-5-1c1-9.44 14.51-17.89 14.51-17.89l-10.39 2.31c-.18-3.73 6.09-12.32 6.47-12.85l-6.87 5.76c-.93-6 4.66-14.9 4.66-14.9l-6.51 3.9c0-4.3 7.17-11.77 7.17-11.77h-5.45c1.15-5.17 16.37-15.51 16.37-15.51l-8.33 1.72 14-9.56c.94 0 1.89-.06 2.84-.06s1.86 0 2.8 0 1.84.1 2.76.18q-.49.62-.91 1.2z" fill="#8792ae" opacity=".15" mix-blend-mode="multiply"/><path d="m54 241.81c33 35.12 86.93 58.8 143.2 52.63-.25-7.19-.5-14.33-.64-21.49q-.14-6-.15-12.1c-44.57.42-88.2-19.44-115.87-47.68-2.31-2.35-7.68-2.59-12.87-.6a20.09 20.09 0 0 0 -8.56 6.1c-.07.09-.42.42-.5.5-6.53 6.61-8.31 18.74-4.61 22.64z" fill="#adb4be"/><path d="m67.63 212.57a30 30 0 0 0 4.65 6.81c27.67 31.94 78 54 124.24 53.57q-.14-6-.15-12.1c-44.57.42-88.2-19.44-115.87-47.68-2.31-2.35-7.68-2.59-12.87-.6z" fill="#bac2cc"/><ellipse cx="261.07" cy="250.64" opacity=".11" rx="89" ry="30.68"/><path d="m148.89 447.36c-.3 0-.59.08-.88.1.37-.22.67-.26.88-.1z" fill="#606b7d"/><path d="m303.1 279.3a1.87 1.87 0 0 1 .15.25z" fill="#c32720"/><path d="m325.62 337c.42 1.53.83 3.09 1.24 4.69-.41-1.57-.86-3.14-1.24-4.69z" fill="#c32720"/><path d="m232.55 279.3a1.87 1.87 0 0 0 -.15.25z" fill="#c32720"/><path d="m210 337c-.42 1.53-.83 3.09-1.24 4.69.44-1.57.85-3.14 1.24-4.69z" fill="#c32720"/><path d="m420.42 188.55c-8.44-.65-16.06-4.74-22.73-10.39a64.84 64.84 0 0 0 .39-7.13c0-1.27 0-2.54-.1-3.8-1.14-19.72-11.08-37.86-27.15-52.58-24.5-22.43-63.25-36.92-106.83-36.92-60.62 0-111.85 28-128.45 66.39a68.36 68.36 0 0 0 -5.4 20.89c-.17 2-.27 4-.27 6 0 1.61.07 3.2.19 4.79 0 .54.08 1.1.14 1.65-6.2 7.36-21.83 10.73-23.4 11.06h-.13s8.92 17 26.12 21.75l-17.12-.26c.54.61 17.49 19.51 36.82 22l1.22.14s-20 .66-24.55-.16c17.83 10.46 38.97 37.52 98.83 29.12l-.17-.19c11.49 2.23 24.7 9.65 37.2 9.65 12.12 0 22.77-7.35 33.95-9.46a155.78 155.78 0 0 0 21.62 1.6c43.77 0 61.77-21.63 77.2-30.66-4.57.82-24.54.16-24.54.16l1.21-.14c19.34-2.5 36.29-21.4 36.83-22l-17.08.27c17.28-4.76 26.2-21.78 26.2-21.78z" fill="#bac2cc"/><path d="m277.32 261.1c-59.91 8.4-81.08-18.66-98.83-29.06 4.57.82 24.54.16 24.54.16l-1.21-.14c-19.34-2.5-36.29-21.4-36.82-22l17.07.27c-17.2-4.73-26.12-21.75-26.12-21.75h.14c1.56-.33 17.2-3.7 23.39-11.06-.05-.55-.1-1.11-.14-1.65-.11-1.59-.18-3.18-.18-4.79 0-2 .09-4 .27-6a68.63 68.63 0 0 1 5.39-20.89 495.9 495.9 0 0 1 31.45-60.39s-64.27 15.06-80.76 60.32c-2.49 6.84-4.73 13.67-5.4 20.89-.17 2-.27 4-.27 6 0 1.61.07 3.2.19 4.79 0 .54.08 1.1.14 1.65-6.2 7.36-21.83 10.73-23.4 11.06h-.13s8.92 17 26.12 21.75l-17.08-.26c.54.61 17.49 19.51 36.82 22l1.22.14s-20 .66-24.55-.16c17.83 10.46 38.97 37.52 98.83 29.12l-.17-.19c11.49 2.23 24.7 9.65 37.2 9.65 8.33 0 16-3.47 23.55-6.33a88.55 88.55 0 0 0 -11.47-3.32z" fill="#adb4be"/><path d="m324 105.27c-23.48-14.5-47.69 10.73-47.69 10.73s-5.08-15.22-13.93-15.22-14.08 15.22-14.08 15.22-24.21-25.23-47.65-10.73-40 54.33-69.48 62.79l.16.08c.7 2.45 20.32 67.8 94.47 42.54 12.86-4.38 31.41 3.13 36.51 3.13h.14c5.1 0 23.64-7.51 36.51-3.13 75.56 25.74 94.49-42.62 94.49-42.62-29.53-8.46-46.04-48.29-69.45-62.79z" fill="#606b7d"/><path d="m299 200.85c-12.87-4.38-31.41 3.12-36.51 3.12h-.14c-5.1 0-23.65-7.5-36.51-3.12-58.44 19.9-93.44-33.13-94.63-32.79l.16.08c.7 2.45 20.32 67.8 94.47 42.54 12.86-4.38 31.41 3.13 36.51 3.13h.14c5.1 0 23.64-7.51 36.51-3.13 75.56 25.74 94.49-42.62 94.49-42.62-1.19-.33-36.15 52.67-94.49 32.79z" fill="#586372"/><path d="m270.93 168.87a40 40 0 1 1 40 40 40 40 0 0 1 -40-40z" fill="#822244" opacity=".4"/><path d="m270.66 160.36a38.67 38.67 0 1 1 38.67 38.64 38.67 38.67 0 0 1 -38.67-38.64z" fill="#fff"/><path d="m348 160.32a38.71 38.71 0 0 1 -77.41 0 35 35 0 0 1 .19-3.71 38.69 38.69 0 0 0 77 0 35 35 0 0 1 .22 3.71z" fill="#f2f2f2"/><path d="m252.86 160.36a38.67 38.67 0 1 0 -38.67 38.64 38.67 38.67 0 0 0 38.67-38.64z" fill="#fff"/><path d="m175.53 160.32a38.71 38.71 0 0 0 77.41 0c0-1.25-.06-2.49-.18-3.71a38.7 38.7 0 0 1 -77 0 35 35 0 0 0 -.23 3.71z" fill="#f2f2f2"/><ellipse cx="261.07" cy="207.05" fill="#ccd3db" rx="35.62" ry="24.95"/><ellipse cx="261.07" cy="203.6" fill="#425066" rx="18.81" ry="13.33"/><path d="m279.88 203.59a9 9 0 0 1 -.29 2.32c-1.55-6.26-9.25-11-18.51-11s-17 4.75-18.52 11a9 9 0 0 1 -.29-2.32c0-7.35 8.42-13.33 18.81-13.33s18.8 5.98 18.8 13.33z" fill="#4a5a70"/><path d="m173.4 122.5s38-10.66 40.35-14.57-7.75-14.75-15.45-12.36-28 16.06-27.78 21.69 2.88 5.24 2.88 5.24z" fill="#303947"/><path d="m171.7 121.61c0-.21 0-.44 0-.68-.26-5.63 20.06-19.3 27.79-21.68 5.43-1.68 12 3.17 14.66 7.56.36-4.51-8.73-13.43-15.8-11.24-7.72 2.38-28 16.06-27.78 21.69a7.48 7.48 0 0 0 1.13 4.35z" fill="#3b4759"/><path d="m335.16 109.68s-38.42-8.87-41-12.66 7-15.1 14.85-13.08 28.77 14.73 28.77 20.37-2.62 5.37-2.62 5.37z" fill="#303947"/><path d="m336.82 108.71c0-.21 0-.44 0-.68 0-5.64-20.94-18.34-28.77-20.36-5.5-1.42-11.88 3.74-14.29 8.25-.58-4.5 8.09-13.83 15.25-12 7.83 2 28.77 14.73 28.77 20.36a7.56 7.56 0 0 1 -.96 4.43z" fill="#3b4759"/><path d="m290.81 167.32a10.41 10.41 0 1 0 3.51-14.32 10.41 10.41 0 0 0 -3.51 14.32z" fill="#425066"/><path d="m305.28 164.53a5.09 5.09 0 1 0 1.72-7 5.1 5.1 0 0 0 -1.72 7z" fill="#fff"/><path d="m235.5 167.32a10.41 10.41 0 1 1 -3.5-14.32 10.41 10.41 0 0 1 3.5 14.32z" fill="#425066"/><path d="m221 164.53a5.09 5.09 0 1 1 -1.72-7 5.1 5.1 0 0 1 1.72 7z" fill="#fff"/><path d="m459.8 247.38-31.37-35.6a5.1 5.1 0 0 1 -.09-6.65l21.19-25.37a25.56 25.56 0 0 1 38.79-.52l11.3 12.82a25.56 25.56 0 0 1 -5.39 38.42l-27.84 17.83a5.1 5.1 0 0 1 -6.59-.93zm0 0" fill="#ff5050"/><path d="m423.99 214.19h23v46h-23z" fill="#dc3c3c" transform="matrix(.75 -.661 .661 .75 -48.06 347.16)"/><path d="m413.85 218.02h23v15.33h-23z" fill="#c33232" transform="matrix(.75 -.661 .661 .75 -42.98 337.58)"/><path d="m434 218.08-6.42-7.29a5.11 5.11 0 0 1 -1-5.17l10.32-27.53a10.22 10.22 0 0 1 13.83-5.7l1.41.65a10.22 10.22 0 0 1 3.93 15.4zm0 0" fill="#dc3c3c"/><path d="m448.39 190.69 9.51-10.21a10.11 10.11 0 0 0 -5.74-7.44l-1.41-.65a9.81 9.81 0 0 0 -1.78-.6l-7.56 13.88a4.33 4.33 0 0 0 7 5zm0 0" fill="#c33232"/><path d="m445.9 258.67-30.41-34.52 9.58-8.44 30.42 34.51a2.56 2.56 0 0 1 -.23 3.61l-5.75 5.07a2.56 2.56 0 0 1 -3.61-.23zm0 0" fill="#ca2f2a"/><path d="m438.23 265.43-30.41-34.52a2.55 2.55 0 0 1 3.83-3.38l30.42 34.52a2.56 2.56 0 0 1 -3.84 3.38zm0 0" fill="#ca2f2a"/><path d="m418.96 218.02h12.78v15.33h-12.78z" fill="#ad2323" transform="matrix(.75 -.661 .661 .75 -42.98 337.58)"/><path d="m418.18 238.81a2.56 2.56 0 0 1 3.61.23l-10.14-11.51a2.55 2.55 0 0 0 -3.83 3.38l10.18 11.51a2.56 2.56 0 0 1 .23-3.61zm0 0" fill="#ad2323"/><path d="m440.75 219.21 21.19-25.37a25.54 25.54 0 0 1 38.2-1.11c-.18-.22-.34-.45-.52-.67l-11.3-12.82a25.56 25.56 0 0 0 -38.79.52l-21.19 25.37a5.1 5.1 0 0 0 .09 6.65l12.41 14.09a5.11 5.11 0 0 1 -.09-6.66zm0 0" fill="#dc3c3c"/><path d="m51.6 245.75a5.11 5.11 0 0 1 -6.61.82l-27.55-18.26a25.55 25.55 0 0 1 -4.79-38.49l11.5-12.65a25.55 25.55 0 0 1 38.77 1.12l20.79 25.71a5.1 5.1 0 0 1 -.19 6.65zm0 0" fill="#ff5050"/><path d="m53.07 224.43h46v23h-46z" fill="#dc3c3c" transform="matrix(.673 -.74 .74 .673 -149.67 133.49)"/><path d="m78.72 213.09h15.33v23h-15.33z" fill="#c33232" transform="matrix(.673 -.74 .74 .673 -137.9 137.41)"/><path d="m56.23 186.87a10.22 10.22 0 0 1 4.17-15.34l1.41-.62a10.23 10.23 0 0 1 13.75 5.92l9.88 27.68a5.13 5.13 0 0 1 -1 5.16l-6.53 7.18zm21.65 30" fill="#dc3c3c"/><path d="m63.89 189.24a4.33 4.33 0 0 0 7-4.91l-7.33-14a9.93 9.93 0 0 0 -1.8.58l-1.41.62a10.13 10.13 0 0 0 -5.86 7.35l9.35 10.36zm0 0" fill="#c33232"/><path d="m65.32 257.25a2.56 2.56 0 0 1 -3.61.17l-5.71-5.16a2.56 2.56 0 0 1 -.17-3.61l30.94-34 9.46 8.59-30.95 34zm0 0" fill="#ca2f2a"/><path d="m72.89 264.13a2.56 2.56 0 0 1 -3.79-3.44l31-34a2.56 2.56 0 1 1 3.78 3.44l-30.94 34zm0 0" fill="#ca2f2a"/><path d="m78.72 218.2h15.33v12.78h-15.33z" fill="#ad2323" transform="matrix(.673 -.74 .74 .673 -137.9 137.41)"/><path d="m93.34 237.83a2.55 2.55 0 0 1 .18 3.61l10.31-11.35a2.56 2.56 0 1 0 -3.78-3.44l-10.32 11.35a2.55 2.55 0 0 1 3.61-.17zm0 0" fill="#ad2323"/><path d="m71.08 217.88a5.1 5.1 0 0 1 -.19 6.65l12.63-13.89a5.1 5.1 0 0 0 .19-6.65l-20.79-25.7a25.55 25.55 0 0 0 -38.77-1.12l-11.5 12.65c-.19.21-.35.44-.53.65a25.54 25.54 0 0 1 38.17 1.71zm0 0" fill="#dc3c3c"/><path d="m350 158.38h-80.2c0-21.29 19-40.45 40.3-40.45s39.9 19.16 39.9 40.45z" fill="#606b7d"/><path d="m254.26 158.38h-80.19c0-21.29 19-40.45 40.29-40.45s39.9 19.16 39.9 40.45z" fill="#606b7d"/><path d="m229.4 232.39s24.22-1 32.41 19.75c0 0-5.73-7.83-32.41-19.75z" fill="#822244"/><path d="m354.56 395.41a121.77 121.77 0 0 1 -15.22 26.41c-9 2-22 2.36-29.77 2.38-4 0-6.58-.07-6.58-.07-39.9 22.16-80.68 0-80.68 0a32.91 32.91 0 0 1 -6.75.43c-9.65-.26-21.84-3.61-32.15-7.12a116.28 116.28 0 0 1 -12.08-22c-13.78-34.34 2.65-58.71 13.29-69.92l4-2.82c.44.29.87.56 1.31.83a126 126 0 0 0 52.49 18.87 135.57 135.57 0 0 0 23.82.82 150.67 150.67 0 0 0 18.18-2.06c30.84-5.36 52.27-18.46 52.27-18.46l1.45-.28c9.96 9.24 31.66 35.02 16.42 72.99z" fill="#336899"/><g fill="#fff"><path d="m345.25 393.22a93.07 93.07 0 0 1 -13.68 20.55c-1.71.33-3.58.61-5.53.83-5.09.58-10.73.85-15.54 1-2.08 0-4 .07-5.67.07-3.57 0-5.92-.06-5.92-.06l-1.45.69a76.21 76.21 0 0 1 -17.7 5.56 81.5 81.5 0 0 1 -8.68 1.16 92.45 92.45 0 0 1 -19.5-.6c-3-.4-5.85-.92-8.44-1.5a86.69 86.69 0 0 1 -16.69-5.31c-.27.05-.56.08-.84.12a34.9 34.9 0 0 1 -5.22.22 63.76 63.76 0 0 1 -7.62-.67 140.9 140.9 0 0 1 -17-3.67c-1.44-.39-2.86-.8-4.24-1.21a87.11 87.11 0 0 1 -10.86-17.14c-12.37-26.74 2.38-45.71 11.94-54.44l3.59-2.19c.39.23.78.44 1.17.64 2 1.13 4.12 2.19 6.18 3.18q4.82 2.3 9.62 4.11a123.67 123.67 0 0 0 13.11 4.13q5.72 1.42 11.32 2.31c2.33.37 4.62.67 6.91.92s4.73.44 7.06.57a143.06 143.06 0 0 0 14.33.07c1.75-.08 3.47-.19 5.17-.33q5.78-.45 11.17-1.27c1.12-.17 2.22-.35 3.31-.55 4-.67 7.73-1.47 11.27-2.33 4.89-1.19 9.35-2.49 13.29-3.78s7.16-2.51 9.92-3.62c5.83-2.35 9.14-4.1 9.14-4.1l1.3-.22c8.97 7.22 28.46 27.29 14.78 56.86z"/><path d="m193.45 412.6a2.9 2.9 0 0 1 -3.13 1.37 2.89 2.89 0 0 1 .33 3.4 2.92 2.92 0 0 1 3.34.73 2.89 2.89 0 0 1 1.73-2.94 2.9 2.9 0 0 1 -2.27-2.56z"/><path d="m202.39 415.09a2.91 2.91 0 0 1 -3.13 1.36 2.91 2.91 0 0 1 .34 3.4 2.9 2.9 0 0 1 3.33.73 2.89 2.89 0 0 1 1.73-2.94 2.9 2.9 0 0 1 -2.27-2.55z"/><path d="m211.18 416.15a2.9 2.9 0 0 1 -3.13 1.37 2.91 2.91 0 0 1 .34 3.4 2.89 2.89 0 0 1 3.33.73 2.91 2.91 0 0 1 1.73-2.95 2.9 2.9 0 0 1 -2.27-2.55z"/><path d="m325.4 415.26a2.9 2.9 0 0 0 2.91 1.78 2.92 2.92 0 0 0 -.79 3.32 2.91 2.91 0 0 0 -3.4.28 2.9 2.9 0 0 0 -1.31-3.15 2.9 2.9 0 0 0 2.59-2.23z"/><path d="m316.2 416.52a2.91 2.91 0 0 0 2.92 1.77 2.89 2.89 0 0 0 -.79 3.32 2.92 2.92 0 0 0 -3.41.28 2.88 2.88 0 0 0 -1.31-3.15 2.9 2.9 0 0 0 2.59-2.22z"/><path d="m307.35 416.38a2.9 2.9 0 0 0 2.91 1.78 2.9 2.9 0 0 0 -.78 3.32 2.92 2.92 0 0 0 -3.41.28 2.9 2.9 0 0 0 -1.31-3.15 2.9 2.9 0 0 0 2.59-2.23z"/></g><path d="m326 414.6c-5.09.58-10.73.85-15.54 1 6.1-13.51 15.52-42.76-.38-71.26 3.83-1.26 7.16-2.51 9.92-3.62 7.89 11.87 23.84 42.46 6 73.88z" fill="#ca2f2a"/><path d="m297.46 416.26a76.21 76.21 0 0 1 -17.7 5.56c3.94-7 19.94-38.93 5.81-71.41 4-.67 7.73-1.47 11.27-2.33 7.97 15.01 16.79 41.41.62 68.18z" fill="#ca2f2a"/><path d="m212.76 415.24a140.9 140.9 0 0 1 -17-3.67c-15.29-30.6.28-59.86 7.79-71.17q4.82 2.3 9.62 4.11c-15.61 28.21-6.51 57.12-.41 70.73z" fill="#ca2f2a"/><path d="m243.13 420.88a86.69 86.69 0 0 1 -16.69-5.31c-.27.05-.56.08-.84.12-15.51-26.24-7.17-52.06.67-67.05q5.73 1.47 11.33 2.36c-13.15 31 .94 61.36 5.53 69.88z" fill="#ca2f2a"/><path d="m271.07 352.23v70.77a92.45 92.45 0 0 1 -19.5-.6v-69.91a143.06 143.06 0 0 0 14.33.07c1.75-.08 3.47-.19 5.17-.33z" fill="#ca2f2a"/><path d="m258.66 353.72c-55.25 0-75.35-24.25-76.24-25.34l7.09-12.38c.18.21 21.64 22.68 69.15 22.68 25.31 0 44.18-6.15 55.56-11.32 12.36-5.61 23.28-11.3 23.34-11.36l5.32 11.53c-1.2 1.05-29.64 26.19-84.22 26.19z" fill="#336899"/><rect fill="#fcb215" height="32" rx="12.45" width="52.09" x="234.05" y="330"/><rect fill="#f9c262" height="14.01" rx="5.96" width="27.29" x="246.45" y="340.37"/></g></g></svg>